<mxfile host="app.diagrams.net" agent="Mozilla/5.0 (Windows NT 10.0; Win64; x64) AppleWebKit/537.36 (KHTML, like Gecko) Chrome/131.0.0.0 Safari/537.36" version="24.9.1">
  <diagram name="Page-1" id="q2uFFpw6A81g-2KVfSTK">
    <mxGraphModel dx="1028" dy="653" grid="1" gridSize="10" guides="1" tooltips="1" connect="1" arrows="1" fold="1" page="1" pageScale="1" pageWidth="850" pageHeight="1100" math="0" shadow="0">
      <root>
        <mxCell id="0" />
        <mxCell id="1" parent="0" />
        <mxCell id="lY29EebwksP_RlhY7hUK-5" style="edgeStyle=orthogonalEdgeStyle;rounded=0;orthogonalLoop=1;jettySize=auto;html=1;entryX=0.5;entryY=1;entryDx=0;entryDy=0;" edge="1" parent="1" source="lY29EebwksP_RlhY7hUK-2" target="lY29EebwksP_RlhY7hUK-3">
          <mxGeometry relative="1" as="geometry">
            <mxPoint x="410" y="350" as="targetPoint" />
          </mxGeometry>
        </mxCell>
        <mxCell id="lY29EebwksP_RlhY7hUK-2" value="Android" style="rounded=0;whiteSpace=wrap;html=1;" vertex="1" parent="1">
          <mxGeometry x="50" y="460" width="720" height="50" as="geometry" />
        </mxCell>
        <mxCell id="lY29EebwksP_RlhY7hUK-7" value="QEMU" style="edgeStyle=orthogonalEdgeStyle;rounded=0;orthogonalLoop=1;jettySize=auto;html=1;exitX=0.5;exitY=0;exitDx=0;exitDy=0;entryX=0.5;entryY=1;entryDx=0;entryDy=0;" edge="1" parent="1" source="lY29EebwksP_RlhY7hUK-3" target="lY29EebwksP_RlhY7hUK-6">
          <mxGeometry relative="1" as="geometry" />
        </mxCell>
        <mxCell id="lY29EebwksP_RlhY7hUK-3" value="Termux app" style="rounded=0;whiteSpace=wrap;html=1;" vertex="1" parent="1">
          <mxGeometry x="130" y="360" width="560" height="50" as="geometry" />
        </mxCell>
        <mxCell id="lY29EebwksP_RlhY7hUK-9" style="edgeStyle=orthogonalEdgeStyle;rounded=0;orthogonalLoop=1;jettySize=auto;html=1;exitX=0.5;exitY=0;exitDx=0;exitDy=0;entryX=0.5;entryY=1;entryDx=0;entryDy=0;" edge="1" parent="1" source="lY29EebwksP_RlhY7hUK-6" target="lY29EebwksP_RlhY7hUK-8">
          <mxGeometry relative="1" as="geometry" />
        </mxCell>
        <mxCell id="lY29EebwksP_RlhY7hUK-6" value="Alpine" style="rounded=0;whiteSpace=wrap;html=1;" vertex="1" parent="1">
          <mxGeometry x="190" y="250" width="440" height="40" as="geometry" />
        </mxCell>
        <mxCell id="lY29EebwksP_RlhY7hUK-8" value="docker, Azure SQL Edge" style="rounded=0;whiteSpace=wrap;html=1;" vertex="1" parent="1">
          <mxGeometry x="240" y="170" width="340" height="40" as="geometry" />
        </mxCell>
        <mxCell id="lY29EebwksP_RlhY7hUK-10" style="edgeStyle=orthogonalEdgeStyle;rounded=0;orthogonalLoop=1;jettySize=auto;html=1;exitX=0.5;exitY=1;exitDx=0;exitDy=0;" edge="1" parent="1" source="lY29EebwksP_RlhY7hUK-2" target="lY29EebwksP_RlhY7hUK-2">
          <mxGeometry relative="1" as="geometry" />
        </mxCell>
      </root>
    </mxGraphModel>
  </diagram>
</mxfile>
